<?xml version="1.0" standalone="no"?>
<!DOCTYPE svg PUBLIC "-//W3C//DTD SVG 20010904//EN"
 "http://www.w3.org/TR/2001/REC-SVG-20010904/DTD/svg10.dtd">
<svg version="1.0" xmlns="http://www.w3.org/2000/svg"
 width="1734.000000pt" height="1280.000000pt" viewBox="0 0 1734.000000 1280.000000"
 preserveAspectRatio="xMidYMid meet">
<metadata>
Created by potrace 1.15, written by Peter Selinger 2001-2017
</metadata>
<g transform="translate(0.000000,1280.000000) scale(0.100000,-0.100000)"
fill="#000000" stroke="none">
<path d="M3809 12708 c9 -23 739 -1853 748 -1874 3 -8 -28 -13 -94 -18 -1023
-72 -1879 -789 -2122 -1776 -50 -205 -65 -331 -65 -560 0 -385 71 -695 239
-1035 125 -253 261 -440 472 -646 363 -355 819 -575 1333 -645 84 -11 302 -14
1107 -14 l1002 0 19 -52 c11 -29 345 -867 742 -1863 397 -995 725 -1816 727
-1822 4 -10 -536 -13 -2665 -15 l-2670 -3 92 -230 92 -230 2673 -5 2672 -5
375 -940 c206 -517 378 -949 382 -959 6 -14 106 226 392 942 l383 961 1691 4
c1852 3 1733 0 1991 62 777 187 1413 763 1669 1512 97 284 130 509 123 823 -9
370 -74 641 -232 965 -317 653 -928 1129 -1628 1270 -228 45 -264 47 -1017 54
l-726 6 745 1868 744 1867 778 0 777 0 91 231 c50 127 91 232 91 235 0 2 -348
5 -774 6 l-773 3 378 950 c209 522 379 951 379 952 0 2 -109 3 -243 3 l-243 0
-380 -952 -379 -953 -3829 0 -3828 0 -380 953 -379 952 -244 0 -245 0 9 -22z
m8699 -2372 c-2 -7 -336 -849 -743 -1870 l-740 -1856 -2149 3 -2150 2 -741
1860 -742 1860 281 5 c155 3 1790 6 3634 8 2826 2 3353 0 3350 -12z m-7011
-1863 l741 -1858 -925 -3 -925 -2 -116 26 c-716 160 -1275 731 -1421 1451
-136 665 107 1367 622 1800 336 282 748 437 1173 442 l111 1 740 -1857z m5332
-2345 c0 -7 -334 -850 -743 -1873 l-742 -1860 -468 0 -468 0 -738 1853 c-407
1019 -742 1862 -745 1873 -6 19 22 19 1949 19 1559 0 1956 -3 1955 -12z m1356
-3 c727 -6 857 -12 1031 -46 381 -73 765 -295 1025 -592 640 -730 619 -1821
-46 -2515 -117 -122 -204 -195 -335 -282 -240 -157 -518 -257 -810 -290 -65
-7 -586 -10 -1656 -8 l-1562 3 747 1873 746 1873 85 -5 c47 -3 396 -8 775 -11z
m-3035 -4210 c0 -10 -263 -670 -270 -678 -4 -5 -67 142 -140 325 -72 183 -134
339 -137 346 -4 9 54 12 271 12 152 0 276 -2 276 -5z"/>
</g>
</svg>
