<?xml version="1.0" standalone="no"?>
<!DOCTYPE svg PUBLIC "-//W3C//DTD SVG 20010904//EN"
 "http://www.w3.org/TR/2001/REC-SVG-20010904/DTD/svg10.dtd">
<svg version="1.0" xmlns="http://www.w3.org/2000/svg"
 width="1280.000000pt" height="1280.000000pt" viewBox="0 0 1280.000000 1280.000000"
 preserveAspectRatio="xMidYMid meet">
<metadata>
Created by potrace 1.15, written by Peter Selinger 2001-2017
</metadata>
<g transform="translate(0.000000,1280.000000) scale(0.100000,-0.100000)"
fill="#000000" stroke="none">
<path d="M6070 12326 c-310 -45 -567 -149 -750 -306 -50 -43 -68 -51 -170 -78
-180 -48 -313 -97 -475 -176 -245 -119 -436 -255 -605 -432 -322 -338 -496
-725 -566 -1264 -24 -192 -31 -463 -21 -825 l10 -330 -31 -130 c-59 -250 -70
-393 -48 -631 27 -298 78 -498 173 -688 67 -133 115 -200 217 -301 85 -84 94
-96 120 -170 97 -275 265 -599 441 -849 l76 -110 -120 -120 c-112 -112 -141
-151 -409 -540 l-288 -419 -1156 -292 c-636 -161 -1187 -303 -1224 -315 -173
-56 -391 -181 -559 -321 -104 -87 -265 -255 -265 -276 0 -8 -11 -28 -25 -45
-14 -16 -63 -107 -110 -201 -127 -257 -199 -496 -225 -747 -5 -52 -10 -378
-10 -725 0 -498 3 -650 15 -725 36 -240 133 -431 304 -599 171 -167 361 -281
566 -338 l100 -28 5345 -3 c3989 -2 5369 0 5440 9 254 30 457 131 640 319 156
159 262 332 315 514 l25 88 0 733 c0 806 2 773 -65 1031 -92 354 -226 596
-460 830 -145 145 -259 234 -416 324 -205 118 -231 125 -1494 444 -643 163
-1172 299 -1176 304 -3 4 -131 189 -284 412 -152 223 -287 416 -300 430 -12
14 -30 39 -38 55 -17 35 -146 160 -225 220 l-52 39 0 71 c0 69 2 74 66 186 90
156 222 427 283 582 49 122 54 130 120 192 205 194 334 513 407 1010 23 161
26 201 21 375 -4 195 -19 297 -61 435 -12 38 -16 100 -16 265 0 760 -149 1430
-421 1900 -290 499 -707 823 -1324 1029 -236 79 -459 139 -645 171 -159 28
-504 36 -650 16z m-789 -2650 c87 -19 161 -53 364 -171 278 -162 429 -224 654
-272 121 -26 136 -27 371 -24 590 8 638 7 735 -17 120 -30 240 -89 311 -154
58 -54 134 -143 134 -158 0 -5 -150 -10 -332 -13 -318 -4 -338 -5 -443 -30
-129 -32 -214 -59 -425 -137 -201 -75 -290 -95 -387 -86 -73 6 -124 21 -468
140 -88 30 -216 67 -285 82 -119 27 -140 28 -444 32 l-319 4 6 171 c9 258 50
415 136 518 38 45 134 96 214 114 80 17 99 17 178 1z m-946 -662 c33 -8 73
-23 90 -32 38 -23 100 -123 82 -134 -8 -4 -91 -13 -185 -20 -154 -11 -175 -15
-193 -34 -30 -32 -34 -85 -14 -196 l19 -100 43 -19 c56 -24 69 -47 138 -242
91 -257 164 -436 207 -511 118 -202 319 -307 645 -337 292 -26 484 26 641 175
88 84 137 176 203 386 53 171 69 208 109 253 38 44 91 61 140 47 72 -21 106
-77 170 -280 24 -74 53 -156 65 -182 36 -75 107 -168 183 -240 146 -138 320
-185 590 -159 159 16 255 41 368 96 231 113 350 295 525 804 l53 154 41 18
c23 10 47 24 53 31 11 14 37 163 46 265 l6 62 -45 7 c-25 3 -104 11 -175 18
l-131 11 30 47 c73 115 307 165 438 94 63 -35 101 -73 147 -149 25 -42 35 -53
38 -40 2 10 14 -16 27 -57 13 -41 27 -88 32 -104 15 -48 11 -394 -5 -472 -8
-38 -19 -110 -25 -161 -40 -332 -208 -654 -374 -714 -32 -11 -35 -18 -87 -173
-74 -223 -264 -593 -431 -843 -130 -193 -362 -448 -534 -588 -676 -548 -1423
-557 -2105 -26 -165 128 -397 381 -565 616 -36 50 -101 162 -146 250 -45 88
-92 178 -105 200 -29 51 -157 390 -187 497 -21 76 -25 82 -54 90 -71 18 -187
156 -248 294 -64 145 -128 402 -128 519 -1 42 7 98 20 140 11 39 26 111 32
160 20 150 51 287 78 345 15 31 52 81 87 116 118 118 246 156 391 118z m3241
-364 c261 -20 411 -85 456 -199 16 -42 11 -160 -11 -247 -33 -131 -122 -326
-188 -413 -84 -110 -372 -204 -573 -186 -97 9 -241 56 -308 102 -101 69 -183
214 -233 410 -38 149 -47 249 -26 290 67 128 386 243 702 252 28 0 109 -4 181
-9z m-2111 -65 c250 -44 423 -124 471 -216 29 -56 11 -248 -38 -399 -52 -165
-149 -287 -260 -328 -199 -75 -557 -32 -764 90 -41 25 -61 46 -97 107 -85 143
-150 341 -163 494 -6 72 -4 90 14 130 33 75 96 107 282 141 58 11 468 -3 555
-19z m3147 -3515 c164 -250 306 -459 316 -465 15 -8 -132 -112 -870 -615 -489
-333 -894 -606 -901 -607 -7 -1 -176 234 -377 522 -201 288 -367 524 -370 525
-3 0 -171 -243 -373 -540 -203 -297 -370 -540 -372 -540 -5 0 -1807 1210
-1819 1221 -6 5 3 13 21 20 26 9 85 90 359 495 232 343 333 484 344 481 8 -2
431 -250 939 -551 508 -301 929 -545 935 -542 6 2 423 252 926 554 l915 550
14 -26 c8 -15 149 -232 313 -482z m-4059 -1168 c523 -357 1007 -685 1074 -730
l122 -82 62 92 c87 130 610 891 619 901 4 4 162 -217 351 -492 l343 -500 26
16 c14 9 489 336 1055 727 613 423 1038 710 1050 709 31 -3 2072 -528 2145
-553 106 -35 318 -145 415 -215 339 -244 521 -544 580 -955 12 -84 15 -229 15
-717 0 -349 -4 -613 -9 -613 -5 0 -14 -37 -21 -82 -20 -143 -77 -277 -169
-401 -71 -97 -190 -179 -326 -225 l-80 -27 -5345 -3 c-3840 -2 -5363 0 -5409
8 -96 17 -210 64 -309 129 -124 82 -203 177 -257 308 -51 127 -55 185 -55 835
0 349 4 639 10 696 27 246 125 515 268 737 57 90 222 252 337 333 98 69 252
148 355 182 36 11 544 144 1130 295 586 150 1066 274 1068 274 1 1 431 -291
955 -647z"/>
</g>
</svg>
