<?xml version="1.0" encoding="utf-8"?>
<!-- Generator: Adobe Illustrator 19.0.0, SVG Export Plug-In . SVG Version: 6.00 Build 0)  -->
<svg version="1.1" id="Layer_1" xmlns="http://www.w3.org/2000/svg" xmlns:xlink="http://www.w3.org/1999/xlink" x="0px" y="0px"
	 viewBox="0 0 21 21" style="enable-background:new 0 0 21 21;" xml:space="preserve">
<style type="text/css">
	.st0{fill:#010101;}
</style>
<g id="XMLID_6_">
	<g id="XMLID_9_">
		<path id="XMLID_10_" class="st0" d="M15.2,6.9H5.8V2.3C5.8,1,6.9,0,8.2,0h4.7c1.3,0,2.3,1,2.3,2.3V6.9z M7.2,5.5h6.5V2.3
			c0-0.5-0.4-0.9-0.9-0.9H8.2c-0.5,0-0.9,0.4-0.9,0.9V5.5z"/>
	</g>
	<path id="XMLID_2_" class="st0" d="M12.3,10.5v2.4H8.7v-2.4H0v9.3C0,20.4,0.6,21,1.3,21h18.4c0.7,0,1.3-0.6,1.3-1.3v-9.3H12.3z"/>
	<path id="XMLID_1_" class="st0" d="M19.7,4.2H1.3C0.6,4.2,0,4.8,0,5.5v3.8h8.7V8h3.6v1.3H21V5.5C21,4.8,20.4,4.2,19.7,4.2z"/>
</g>
</svg>
