<?xml version="1.0" standalone="no"?>
<!DOCTYPE svg PUBLIC "-//W3C//DTD SVG 20010904//EN"
 "http://www.w3.org/TR/2001/REC-SVG-20010904/DTD/svg10.dtd">
<svg version="1.0" xmlns="http://www.w3.org/2000/svg"
 width="1280.000000pt" height="1280.000000pt" viewBox="0 0 1280.000000 1280.000000"
 preserveAspectRatio="xMidYMid meet">
<metadata>
Created by potrace 1.14, written by Peter Selinger 2001-2017
</metadata>
<g transform="translate(0.000000,1280.000000) scale(0.100000,-0.100000)"
fill="#000000" stroke="none">
<path d="M1225 10563 c-47 -7 -155 -40 -233 -72 -320 -132 -564 -478 -642
-912 -20 -111 -20 -143 -20 -3318 0 -3550 -5 -3277 66 -3510 44 -147 66 -193
149 -322 151 -233 383 -411 615 -472 l85 -22 5170 0 5170 0 84 23 c93 26 190
72 296 140 194 125 366 363 446 619 75 241 69 -81 69 3558 0 3626 6 3324 -66
3542 -65 197 -164 348 -330 502 -124 115 -210 163 -396 223 l-73 23 -5180 1
c-2849 1 -5193 -1 -5210 -3z m10219 -418 c3 -8 18 -15 33 -15 75 0 235 -56
298 -103 19 -14 18 -16 -10 -53 -16 -22 -41 -50 -55 -64 -24 -23 -120 -143
-568 -709 -90 -113 -180 -224 -200 -246 -20 -22 -200 -245 -400 -495 -200
-250 -420 -525 -490 -611 -70 -86 -247 -306 -394 -490 -147 -184 -295 -368
-329 -409 -34 -41 -96 -118 -137 -170 -262 -328 -672 -839 -735 -915 -41 -49
-199 -247 -352 -440 -153 -192 -293 -368 -312 -390 -40 -47 -445 -553 -641
-800 -74 -93 -142 -177 -151 -185 -9 -8 -60 -70 -113 -137 -164 -206 -234
-261 -370 -289 -144 -30 -290 12 -397 116 -23 22 -204 244 -401 493 -198 249
-384 479 -413 511 -49 56 -117 141 -560 700 -99 125 -194 242 -210 260 -29 30
-81 95 -550 683 -119 150 -227 282 -240 295 -12 13 -117 142 -232 288 -116
145 -281 352 -368 460 -86 107 -298 371 -470 585 -382 477 -456 567 -506 625
-21 25 -190 236 -376 470 -186 234 -343 430 -350 435 -7 6 -98 118 -203 250
-158 197 -189 242 -179 254 18 21 130 70 211 91 69 18 236 19 5117 19 4477 1
5048 -1 5053 -14z m-10258 -640 c153 -192 287 -359 299 -370 11 -11 45 -51 76
-90 124 -157 695 -868 788 -983 55 -67 230 -284 388 -482 159 -198 306 -382
328 -408 22 -26 201 -250 399 -498 197 -247 376 -469 398 -494 21 -25 136
-166 255 -315 119 -148 225 -280 236 -292 l19 -22 -138 -108 c-75 -59 -158
-126 -183 -148 -25 -22 -170 -137 -321 -255 -306 -240 -416 -327 -647 -512
-87 -69 -214 -170 -283 -224 -69 -54 -174 -137 -235 -185 -60 -48 -133 -104
-161 -125 -28 -22 -76 -60 -105 -86 -30 -26 -108 -89 -174 -141 -489 -382
-648 -507 -705 -553 -93 -77 -598 -475 -605 -477 -14 -5 -78 162 -101 262
l-24 109 2 3179 c3 3028 4 3181 21 3238 31 102 84 225 128 292 34 52 44 62 54
51 7 -7 138 -170 291 -363z m10845 248 c47 -98 76 -205 89 -328 6 -55 10
-1282 10 -3157 0 -2298 3 -3068 11 -3068 16 0 6 -114 -16 -201 -20 -78 -131
-309 -149 -309 -12 0 -309 237 -331 264 -5 7 -89 77 -186 157 -380 311 -812
666 -868 714 -33 28 -236 195 -453 372 -216 177 -447 367 -513 422 -66 55
-353 290 -637 523 -284 233 -517 425 -517 428 -1 7 553 697 593 740 19 19 197
240 398 490 200 250 375 466 388 480 14 14 196 238 405 498 209 261 400 498
425 528 25 29 216 265 424 525 209 259 393 486 410 504 17 18 123 148 236 289
l205 256 18 -22 c10 -13 36 -60 58 -105z m-7401 -4494 c59 -74 267 -334 462
-579 194 -245 371 -465 394 -490 22 -25 133 -163 247 -306 114 -144 230 -283
259 -309 105 -95 249 -145 413 -145 150 0 246 29 365 110 87 60 116 93 435
490 81 102 156 192 165 200 10 8 93 110 186 225 689 858 772 958 789 946 22
-17 329 -268 465 -380 198 -165 708 -584 925 -761 98 -80 190 -157 204 -171
14 -14 150 -127 301 -249 151 -123 314 -255 361 -294 47 -39 153 -125 234
-191 82 -66 176 -145 210 -175 55 -50 732 -605 759 -622 31 -20 -131 -118
-237 -143 -54 -13 -724 -15 -5126 -15 -4656 0 -5065 -1 -5076 -16 -10 -14 -20
-15 -82 -5 -83 14 -170 58 -265 132 l-68 53 23 24 c12 13 154 128 316 256 161
127 373 295 470 373 97 78 362 289 590 470 227 180 439 349 470 375 31 26 265
214 521 418 256 204 494 395 530 425 204 169 636 502 643 495 5 -4 58 -68 117
-141z"/>
</g>
</svg>
