<?xml version="1.0" standalone="no"?>
<!DOCTYPE svg PUBLIC "-//W3C//DTD SVG 20010904//EN"
 "http://www.w3.org/TR/2001/REC-SVG-20010904/DTD/svg10.dtd">
<svg version="1.0" xmlns="http://www.w3.org/2000/svg"
 width="1280.000000pt" height="1280.000000pt" viewBox="0 0 1280.000000 1280.000000"
 preserveAspectRatio="xMidYMid meet">
<metadata>
Created by potrace 1.14, written by Peter Selinger 2001-2017
</metadata>
<g transform="translate(0.000000,1280.000000) scale(0.100000,-0.100000)"
fill="#000000" stroke="none">
<path d="M1730 11843 c-224 -23 -412 -115 -580 -283 -151 -151 -230 -296 -271
-495 -18 -87 -19 -230 -19 -4102 0 -3403 2 -4022 14 -4085 40 -207 137 -390
285 -539 168 -168 361 -258 594 -279 71 -6 1278 -10 3305 -10 l3192 0 993
-662 c545 -364 1076 -719 1179 -790 103 -70 192 -128 198 -128 7 0 10 260 10
790 l0 790 143 0 c275 0 434 28 582 103 279 140 481 411 541 725 12 63 14 682
14 4085 0 3872 -1 4015 -19 4102 -41 199 -120 344 -271 495 -138 139 -264 211
-455 263 l-80 22 -4660 1 c-2563 0 -4676 -1 -4695 -3z m9403 -380 c113 -43
181 -86 257 -163 87 -87 141 -180 170 -296 20 -76 20 -121 20 -2406 0 -2617 7
-2394 -78 -2568 -83 -171 -246 -308 -422 -355 -48 -13 -492 -15 -3353 -15
l-3297 0 -969 -650 c-533 -357 -972 -650 -975 -650 -3 0 -6 293 -6 650 l0 650
-372 0 c-414 0 -427 2 -557 66 -54 27 -96 58 -150 113 -87 87 -140 171 -179
286 l-27 80 0 2385 c0 2305 1 2387 19 2440 76 223 243 383 458 440 71 19 173
19 4738 17 l4665 -2 58 -22z m-9710 -5857 c96 -60 213 -102 318 -116 46 -5
193 -10 326 -10 l243 0 0 -235 0 -235 -267 0 c-304 0 -366 9 -478 64 -230 115
-375 360 -375 637 l0 96 79 -78 c44 -42 113 -98 154 -123z m10142 -74 c-44
-198 -187 -377 -371 -464 -131 -62 106 -58 -3421 -58 l-3223 0 0 235 0 235
3253 2 3252 3 78 22 c153 44 337 160 412 261 l30 40 3 -101 c2 -67 -3 -127
-13 -175z m-7213 -357 l3 -225 -935 -620 -935 -619 -3 221 c-2 215 -2 221 19
237 42 32 1834 1230 1841 1230 4 1 9 -100 10 -224z m-2937 -207 c171 -111 255
-128 620 -128 l275 0 2 -726 3 -725 170 109 c94 60 582 382 1085 715 l914 607
3271 0 c2320 0 3289 3 3331 11 151 28 312 117 427 237 l67 70 0 -746 c0 -843
1 -826 -74 -977 -75 -151 -177 -255 -313 -321 -120 -58 -166 -64 -555 -64
l-348 0 -2 -638 -3 -637 -965 647 -965 647 -3310 3 c-3166 3 -3313 4 -3370 22
-109 32 -194 85 -280 171 -87 86 -135 165 -176 290 l-24 70 -3 780 -3 779 78
-76 c43 -41 110 -96 148 -120z m-16 -1947 c76 -52 169 -95 254 -118 58 -16
277 -18 3305 -20 l3242 -3 0 -235 0 -235 -3232 0 c-2846 0 -3241 2 -3297 15
-199 47 -371 216 -447 440 -23 67 -28 102 -32 213 l-4 132 73 -73 c41 -40 103
-93 138 -116z m10179 32 c-5 -106 -10 -141 -33 -203 -63 -174 -195 -326 -347
-399 -46 -21 -107 -44 -136 -50 -31 -6 -168 -11 -327 -11 l-275 0 0 234 0 234
308 4 c281 4 313 6 380 26 146 44 287 132 378 236 27 30 51 56 53 56 2 0 1
-57 -1 -127z m-2301 -854 c493 -331 921 -612 952 -624 l56 -23 3 -222 2 -223
-22 15 c-13 8 -445 291 -960 628 l-938 614 0 218 c0 120 3 218 6 218 3 0 409
-271 901 -601z"/>
<path d="M3619 9485 c-292 -55 -534 -238 -664 -500 -73 -147 -89 -221 -89
-415 0 -151 3 -173 28 -255 94 -307 324 -538 631 -631 82 -25 105 -28 255 -28
143 -1 175 2 244 22 199 58 366 166 482 316 128 163 190 326 200 531 24 443
-263 833 -695 947 -101 26 -290 33 -392 13z"/>
<path d="M6218 9484 c-358 -65 -637 -326 -734 -689 -25 -95 -26 -339 -1 -438
81 -325 319 -574 644 -674 81 -24 102 -27 258 -27 156 0 177 3 258 27 325 100
563 349 644 674 12 49 17 110 17 218 0 166 -12 230 -68 365 -166 393 -592 621
-1018 544z"/>
<path d="M8824 9486 c-261 -50 -491 -207 -627 -427 -172 -277 -180 -651 -22
-935 123 -220 320 -374 571 -446 69 -20 101 -23 244 -22 150 0 173 3 255 28
308 94 540 327 630 631 38 128 45 312 17 445 -73 352 -328 619 -680 711 -100
26 -290 34 -388 15z"/>
</g>
</svg>
