<?xml version="1.0" encoding="utf-8"?>
<!-- Generator: Adobe Illustrator 19.0.0, SVG Export Plug-In . SVG Version: 6.00 Build 0)  -->
<svg version="1.1" xmlns="http://www.w3.org/2000/svg" xmlns:xlink="http://www.w3.org/1999/xlink" x="0px" y="0px"
	 viewBox="-64 66 20 20" style="enable-background:new -64 66 20 20;" xml:space="preserve">
<style type="text/css">
	.st0{display:none;}
	.st1{display:inline;stroke:#000000;stroke-miterlimit:10;}
	.st2{display:inline;}
	.st3{fill:#FFFFFF;stroke:#040303;stroke-miterlimit:10;}
	.st4{display:inline;stroke:#040303;stroke-miterlimit:10;}
	.st5{stroke:#040303;stroke-miterlimit:10;}
	.st6{fill:none;stroke:#040303;stroke-miterlimit:10;}
</style>
<g id="Layer_1" class="st0">
	<rect id="XMLID_2_" x="-64" y="66" class="st1" width="2.8" height="3.8"/>
	
		<rect id="XMLID_5_" x="-46.2" y="64.7" transform="matrix(-0.8239 0.5667 -0.5667 -0.8239 -43.8562 147.1514)" class="st1" width="2.8" height="4.1"/>
	<rect id="XMLID_3_" x="-47.1" y="82" class="st1" width="2.8" height="3.8"/>
	<rect id="XMLID_6_" x="-64" y="82.3" class="st1" width="2.8" height="3.8"/>
	<path class="st2" d="M-47.5,66h-13c-1.9,0-3.5,1.4-3.5,3.1v11.7c0,1.6,1.6,3,3.5,3h13.1c1.9,0,3.5-1.4,3.5-3.1V69.1
		C-44,67.4-45.6,66-47.5,66z M-48.5,72.5c0,0,0.3,3-1.9,5.3c-4.2,4-10.4,1.2-10.4,1.2c2.7,0.1,4.1-1,4.1-1c-1.8-0.2-2.5-1.9-2.5-1.9
		c0.7,0.2,1.2,0,1.2,0c-2-0.6-2.2-2.6-2.2-2.6c0.5,0.5,1.3,0.4,1.3,0.4c-1.9-1.2-1.2-3.6-1.2-3.6s2.6,2.8,6,2.7c0,0-0.3-1.9,1.4-2.8
		c1.7-0.8,3-0.1,3.5,0.6c0.5-0.1,1.3-0.4,1.8-0.8c0,0.8-1,1.4-1,1.4c0.9-0.1,1.4-0.4,1.4-0.4C-47.3,72-48.5,72.5-48.5,72.5z"/>
</g>
<g id="Layer_2" class="st0">
	<g id="XMLID_11_" class="st2">
		<path id="XMLID_8_" class="st3" d="M-53.7,73.5c-1.1,0-2,0.7-2,1.6c0,0.9,0.9,1.6,2,1.6c1.1,0,2-0.7,2-1.6S-52.7,73.5-53.7,73.5z"
			/>
		<path id="XMLID_13_" class="st3" d="M-49.1,69.4h-9.2c-1.4,0-2.5,0.9-2.5,2v7.5c0,1.1,1.1,2,2.5,2h9.2c1.4,0,2.5-0.9,2.5-2v-7.4
			C-46.7,70.3-47.8,69.4-49.1,69.4z M-53.7,78.4c-2.3,0-4.1-1.5-4.1-3.3s1.8-3.3,4.1-3.3s4.1,1.5,4.1,3.3S-51.5,78.4-53.7,78.4z
			 M-48.1,71.4c0,0.5-0.4,0.8-1,0.8l0,0c-0.6,0.1-1.1-0.3-1.1-0.8l0,0c0-0.5,0.4-0.8,1-0.8l0,0C-48.6,70.6-48.1,71-48.1,71.4
			L-48.1,71.4z"/>
	</g>
	<rect x="-47" y="77.6" class="st4" width="0.4" height="0"/>
</g>
<g id="Layer_3">
	<path id="XMLID_1_" d="M-49.3,66.5h-9.3c-1.4,0-2.6,1.5-2.6,3.4v12.6c0,1.7,1.1,3.3,2.5,3.3h5v-6.8h-1.4V76h1.4v-1.8
		c0-2,1.2-3.6,2.7-3.6h1.7v2.9H-51c-0.3,0-0.6,0.4-0.6,0.8v1.8h1.9V79h-1.8v6.7h1h1.2c1.4,0,2.5-1.5,2.5-3.4V69.8
		C-46.8,68-48,66.5-49.3,66.5z"/>
</g>
<g id="Layer_4">
	<rect x="-66.4" y="62.8" class="st5" width="26.6" height="6.7"/>
	<g>
		<rect x="-46.4" y="60.8" class="st5" width="6.4" height="31.6"/>
	</g>
	<rect x="-47" y="76.6" class="st5" width="0.4" height="0"/>
	<rect x="-67.9" y="63.3" class="st5" width="6.7" height="30.6"/>
	<rect x="-79.4" y="86" class="st5" width="41.3" height="2.6"/>
	<path class="st6" d="M-46.8,84.1c0-0.1-0.1-0.2-0.1-0.3c-0.4,0.6-0.7,1.2-1,1.9"/>
	<path class="st6" d="M-48.1,86.4c0.6-0.8,1.1-1.8,1.4-2.7c-0.4,0.9-0.6,1.7-1,2.7"/>
	<path class="st6" d="M-46.9,71.6C-46.9,71.6-46.9,71.5-46.9,71.6c0-0.3-0.1-0.5-0.2-0.8c-0.1-0.4-0.2-0.7-0.5-1
		c-0.1-0.1-0.2-0.2-0.3-0.2c0.2,0.3,0.2,0.7,0.2,1c-0.1-0.4-0.2-0.9-0.2-1.3c0.1,0.5,0.2,0.9,0.3,1.4c0.2-0.2,0.4-0.4,0.5-0.7
		c-0.1,0.6-0.2,1.3-0.3,1.9c0.2-0.5,0.3-1,0.4-1.6c0-0.1,0-0.1,0-0.2c0,0,0-0.1-0.1-0.1c-0.1-0.1-0.1-0.2-0.2-0.3
		c-0.1-0.1-0.1-0.2-0.3-0.3c-0.2-0.1-0.4,0-0.5,0.1c-0.1,0-0.2,0.1-0.2,0.2c-0.1,0.1,0,0.2,0,0.3c0.1,0.4,0.2,0.7,0.4,1
		c0.1-0.3,0.2-0.5,0.3-0.8c0-0.1,0.1-0.2,0.2-0.2"/>
	<path class="st6" d="M-58.1,69.1c-0.7,0.2-1.3,0.7-1.9,1.2c-0.4,0.4-0.8,0.7-1.3,1.1c0.4-0.1,0.7-0.2,1.1-0.5
		c0.1-0.1,0.2-0.1,0.2-0.2c0.1-0.1,0.1-0.2,0.1-0.3c0.1-0.3,0.2-0.5,0.3-0.8c-0.5,0.1-0.9,0.6-1.2,1c-0.1,0.1-0.1,0.2-0.1,0.3
		c0,0.2,0.3,0.4,0.5,0.5c0,0-0.1,0.1-0.1,0c0,0,0-0.1-0.1-0.1c-0.1-0.6,0.1-1.2,0.4-1.8c-0.5,0.4-1,0.7-1.4,1.1"/>
	<path class="st6" d="M-59.9,85.8c-0.1-0.1-0.2-0.2-0.3-0.4c-0.2-0.2-0.3-0.4-0.5-0.6c-0.2-0.3-0.2-0.8-0.2-1.1
		c0.6,0.7,1.1,1.3,1.7,2c0.1-0.1,0.1-0.3,0.1-0.4c0-0.1-0.1-0.3-0.2-0.4c-0.3-0.4-0.7-0.9-1-1.3c-0.2,0.7-0.2,1.4-0.2,2.1
		c0.2-0.4,0.4-0.8,0.6-1.2c0-0.1,0.2-0.2,0.2-0.1c0,0,0,0.1,0,0.2c-0.2,0.5-0.5,1-0.7,1.5"/>
</g>
</svg>
