<?xml version="1.0" standalone="no"?>
<!DOCTYPE svg PUBLIC "-//W3C//DTD SVG 20010904//EN"
 "http://www.w3.org/TR/2001/REC-SVG-20010904/DTD/svg10.dtd">
<svg version="1.0" xmlns="http://www.w3.org/2000/svg"
 width="349.000000pt" height="349.000000pt" viewBox="0 0 349.000000 349.000000"
 preserveAspectRatio="xMidYMid meet">
<metadata>
Created by potrace 1.15, written by Peter Selinger 2001-2017
</metadata>
<g transform="translate(0.000000,349.000000) scale(0.100000,-0.100000)"
fill="#000000" stroke="none">
<path d="M1547 3470 c-274 -34 -540 -133 -762 -281 -507 -339 -797 -908 -772
-1514 19 -447 192 -840 507 -1155 259 -259 580 -425 940 -487 130 -22 440 -22
570 0 360 62 681 228 940 487 257 257 418 565 487 933 24 129 24 455 0 584
-69 368 -230 676 -487 933 -256 256 -569 420 -927 485 -102 19 -397 28 -496
15z m-215 -1003 c29 -19 60 -37 68 -40 8 -4 29 -15 45 -25 17 -10 51 -30 77
-45 25 -14 64 -37 87 -51 22 -14 42 -26 45 -26 2 0 61 -34 131 -75 69 -41 129
-75 131 -75 3 0 28 -15 57 -33 51 -33 81 -50 202 -117 33 -18 65 -36 70 -40 6
-4 27 -17 47 -28 169 -95 246 -145 242 -157 -6 -14 -32 -31 -124 -83 -25 -14
-58 -34 -75 -44 -16 -10 -37 -21 -45 -25 -8 -3 -39 -21 -68 -40 -29 -18 -54
-33 -56 -33 -4 0 -178 -100 -191 -110 -5 -4 -30 -18 -55 -32 -122 -67 -169
-94 -217 -124 -28 -19 -54 -34 -57 -34 -2 0 -51 -27 -108 -61 -57 -34 -128
-75 -158 -92 -30 -17 -69 -38 -87 -48 -17 -10 -34 -15 -37 -12 -3 4 -6 339 -6
745 0 645 2 738 15 738 8 0 38 -15 67 -33z"/>
</g>
</svg>
