<?xml version="1.0" standalone="no"?>
<!DOCTYPE svg PUBLIC "-//W3C//DTD SVG 20010904//EN"
 "http://www.w3.org/TR/2001/REC-SVG-20010904/DTD/svg10.dtd">
<svg version="1.0" xmlns="http://www.w3.org/2000/svg"
 width="349.000000pt" height="349.000000pt" viewBox="0 0 349.000000 349.000000"
 preserveAspectRatio="xMidYMid meet">
<metadata>
Created by potrace 1.15, written by Peter Selinger 2001-2017
</metadata>
<g transform="translate(0.000000,349.000000) scale(0.100000,-0.100000)"
fill="#000000" stroke="none">
<path d="M1547 3470 c-120 -15 -229 -40 -351 -81 -885 -294 -1380 -1242 -1115
-2137 12 -39 26 -72 31 -72 15 0 81 32 101 48 9 8 20 13 23 9 3 -3 17 -2 30 3
14 6 26 6 29 0 4 -6 16 -10 29 -10 30 0 76 -22 76 -37 0 -7 6 -13 14 -13 8 0
16 -4 18 -10 1 -5 4 212 5 483 1 479 12 771 31 832 5 17 16 50 23 75 29 103
94 207 180 290 91 88 187 138 339 176 176 45 1300 44 1470 0 172 -45 235 -79
346 -190 111 -111 145 -174 190 -346 44 -170 45 -1305 1 -1470 -47 -173 -89
-249 -197 -358 -58 -58 -131 -108 -200 -136 -25 -10 -53 -22 -62 -27 -10 -5
-27 -9 -37 -9 -11 0 -23 -4 -26 -10 -3 -5 -21 -10 -39 -10 -19 0 -47 -7 -62
-15 -16 -8 -24 -15 -17 -15 24 0 116 -84 160 -146 26 -35 50 -64 54 -64 4 0
54 31 111 69 511 341 801 909 775 1516 -19 447 -192 840 -507 1155 -256 256
-569 420 -927 485 -102 19 -397 28 -496 15z"/>
<path d="M1195 2805 c-197 -18 -282 -52 -375 -151 -120 -128 -140 -245 -140
-807 0 -344 15 -661 32 -651 4 3 8 14 8 25 0 11 23 44 51 74 53 56 58 58 186
71 37 4 62 1 90 -12 124 -56 163 -76 208 -108 67 -48 76 -45 23 7 -24 23 -56
58 -71 78 -36 48 -97 166 -97 189 0 10 -4 21 -8 24 -19 11 -35 147 -30 243 12
205 113 394 272 508 132 93 242 128 406 128 98 -1 127 -5 195 -28 44 -14 105
-40 135 -57 81 -46 218 -189 257 -268 63 -128 68 -152 68 -315 0 -139 -2 -155
-28 -225 -15 -41 -42 -99 -60 -128 -44 -74 -179 -212 -207 -212 -6 0 -10 -4
-10 -8 0 -5 -28 -21 -62 -36 -35 -15 -71 -32 -80 -37 -10 -5 -28 -9 -41 -9
-13 0 -27 -4 -33 -10 -5 -5 -68 -11 -139 -12 l-130 -3 80 -30 c44 -16 83 -30
87 -30 3 0 10 -3 14 -7 4 -5 18 -8 30 -8 13 0 26 -5 29 -11 4 -6 12 -8 19 -6
7 3 23 -4 37 -14 13 -10 31 -19 40 -19 9 0 24 -9 34 -20 10 -11 24 -20 31 -20
17 0 65 -98 50 -103 -8 -3 -8 -10 1 -25 7 -12 8 -22 3 -24 -5 -2 -7 -13 -4
-26 6 -22 9 -22 152 -22 141 0 175 4 277 37 142 46 237 154 279 318 48 189 48
1199 0 1389 -24 94 -54 147 -119 211 -97 98 -180 127 -416 144 -194 14 -867
12 -1044 -4z m1284 -205 c106 -30 150 -159 84 -248 -81 -109 -247 -75 -283 58
-15 56 -2 98 46 146 51 51 90 62 153 44z"/>
<path d="M1670 2176 c-82 -16 -147 -47 -205 -98 -80 -71 -119 -140 -145 -260
-11 -47 -11 -69 -1 -115 36 -164 111 -263 248 -329 73 -35 82 -37 178 -37 96
0 105 2 178 37 95 45 167 116 210 206 29 61 31 72 31 175 0 102 -2 115 -31
175 -68 143 -171 220 -337 249 -33 6 -60 10 -60 10 -1 -1 -30 -7 -66 -13z"/>
</g>
</svg>
