<?xml version="1.0" standalone="no"?>
<!DOCTYPE svg PUBLIC "-//W3C//DTD SVG 20010904//EN"
 "http://www.w3.org/TR/2001/REC-SVG-20010904/DTD/svg10.dtd">
<svg version="1.0" xmlns="http://www.w3.org/2000/svg"
 width="349.000000pt" height="349.000000pt" viewBox="0 0 349.000000 349.000000"
 preserveAspectRatio="xMidYMid meet">
<metadata>
Created by potrace 1.14, written by Peter Selinger 2001-2017
</metadata>
<g transform="translate(0.000000,349.000000) scale(0.100000,-0.100000)"
fill="#000000" stroke="none">
<path d="M1547 3469 c-586 -68 -1093 -424 -1360 -956 -44 -86 -121 -312 -141
-413 -47 -234 -47 -476 0 -710 20 -101 97 -327 141 -413 252 -502 704 -839
1266 -944 129 -24 455 -24 584 0 562 105 1014 442 1266 944 44 86 121 312 141
413 47 234 47 476 0 710 -20 101 -97 327 -141 413 -303 603 -906 973 -1573
966 -63 -1 -146 -5 -183 -10z m1397 -561 c8 -30 8 -402 0 -422 -5 -14 -33 -16
-205 -16 -186 0 -200 -1 -219 -20 -19 -19 -20 -33 -20 -235 l0 -215 214 0
c118 0 217 -3 219 -7 2 -5 -2 -71 -9 -148 -7 -77 -16 -176 -20 -220 -4 -44
-11 -86 -17 -92 -7 -10 -60 -13 -203 -13 l-194 0 0 -582 c0 -321 -3 -593 -6
-606 l-6 -22 -252 2 -251 3 -5 600 -5 600 -145 2 c-80 2 -155 5 -167 8 l-23 5
0 235 0 235 168 2 167 3 6 265 c8 327 16 363 109 475 48 56 126 119 179 142
87 37 123 41 402 42 l277 1 6 -22z"/>
</g>
</svg>
