<?xml version="1.0" encoding="utf-8"?>
<!-- Generator: Adobe Illustrator 19.0.0, SVG Export Plug-In . SVG Version: 6.00 Build 0)  -->
<svg version="1.1" xmlns="http://www.w3.org/2000/svg" xmlns:xlink="http://www.w3.org/1999/xlink" x="0px" y="0px"
	 viewBox="-64 66 20 20" style="enable-background:new -64 66 20 20;" xml:space="preserve">
<style type="text/css">
	.st0{display:none;}
	.st1{display:inline;stroke:#000000;stroke-miterlimit:10;}
	.st2{display:inline;}
	.st3{fill:#FFFFFF;stroke:#040303;stroke-miterlimit:10;}
	.st4{stroke:#040303;stroke-miterlimit:10;}
</style>
<g id="Layer_1" class="st0">
	<rect id="XMLID_2_" x="-64" y="66" class="st1" width="2.8" height="3.8"/>
	
		<rect id="XMLID_5_" x="-46.2" y="64.7" transform="matrix(-0.8239 0.5667 -0.5667 -0.8239 -43.8562 147.1514)" class="st1" width="2.8" height="4.1"/>
	<rect id="XMLID_3_" x="-47.1" y="82" class="st1" width="2.8" height="3.8"/>
	<rect id="XMLID_6_" x="-64" y="82.3" class="st1" width="2.8" height="3.8"/>
	<path class="st2" d="M-47.5,66h-13c-1.9,0-3.5,1.6-3.5,3.5v13.1c0,1.8,1.6,3.4,3.5,3.4h13.1c1.9,0,3.5-1.6,3.5-3.5v-13
		C-44,67.6-45.6,66-47.5,66z M-48.5,73.3c0,0,0.3,3.4-1.9,5.9c-4.2,4.5-10.4,1.3-10.4,1.3c2.7,0.1,4.1-1.1,4.1-1.1
		c-1.8-0.2-2.5-2.1-2.5-2.1c0.7,0.2,1.2,0,1.2,0c-2-0.7-2.2-2.9-2.2-2.9c0.5,0.6,1.3,0.5,1.3,0.5c-1.9-1.3-1.2-4-1.2-4s2.6,3.1,6,3
		c0,0-0.3-2.1,1.4-3.1c1.7-0.9,3-0.1,3.5,0.7c0.5-0.1,1.3-0.4,1.8-0.9c0,0.9-1,1.6-1,1.6c0.9-0.1,1.4-0.5,1.4-0.5
		C-47.3,72.7-48.5,73.3-48.5,73.3z"/>
</g>
<g id="Layer_2">
	<g id="XMLID_11_">
		<path id="XMLID_8_" class="st3" d="M-53.9,74.4c-1.1,0-1.9,0.7-1.9,1.6c0,0.9,0.9,1.6,1.9,1.6c1.1,0,1.9-0.7,1.9-1.6
			C-52,75.1-52.9,74.4-53.9,74.4z"/>
		<path id="XMLID_13_" class="st3" d="M-49.5,70.4h-8.9c-1.3,0-2.4,0.9-2.4,2v7.3c0,1.1,1.1,1.9,2.4,1.9h9c1.3,0,2.4-0.9,2.4-2v-7.3
			C-47.1,71.3-48.2,70.4-49.5,70.4z M-53.9,79.2c-2.2,0-4-1.5-4-3.2c0-1.7,1.8-3.2,4-3.2s4,1.5,4,3.2
			C-49.9,77.7-51.8,79.2-53.9,79.2z M-48.5,72.4c0,0.5-0.4,0.8-1,0.8l0,0c-0.6,0.1-1-0.3-1-0.8l0,0c0-0.5,0.4-0.8,1-0.8l0,0
			C-49,71.6-48.5,71.9-48.5,72.4L-48.5,72.4z"/>
	</g>
	<rect x="-66.4" y="63.8" class="st4" width="26.6" height="6.7"/>
	<rect x="-47" y="61.7" class="st4" width="7" height="31.6"/>
	<rect x="-47" y="77.6" class="st4" width="0.4" height="0"/>
	<rect x="-67.9" y="64.3" class="st4" width="7.1" height="30.6"/>
	<rect x="-79.4" y="81.6" class="st4" width="41.3" height="8"/>
</g>
</svg>
