<?xml version="1.0" standalone="no"?>
<!DOCTYPE svg PUBLIC "-//W3C//DTD SVG 20010904//EN"
 "http://www.w3.org/TR/2001/REC-SVG-20010904/DTD/svg10.dtd">
<svg version="1.0" xmlns="http://www.w3.org/2000/svg"
 width="1280.000000pt" height="1280.000000pt" viewBox="0 0 1280.000000 1280.000000"
 preserveAspectRatio="xMidYMid meet">
<metadata>
Created by potrace 1.14, written by Peter Selinger 2001-2017
</metadata>
<g transform="translate(0.000000,1280.000000) scale(0.100000,-0.100000)"
fill="#000000" stroke="none">
<path d="M11590 11857 c-399 -207 -10380 -5578 -10917 -5875 -205 -114 -373
-209 -373 -212 0 -3 98 -54 218 -113 598 -298 3175 -1612 3178 -1621 8 -21
295 -2292 334 -2640 21 -191 41 -350 43 -353 8 -8 466 386 1145 984 l672 593
1395 -1116 c768 -614 1397 -1115 1400 -1113 7 8 181 626 1574 5614 786 2816
1486 5318 1555 5560 69 242 126 445 126 452 0 7 -3 13 -7 13 -5 0 -159 -78
-343 -173z m-625 -786 c-33 -32 -1639 -1556 -3568 -3385 l-3509 -3326 -41 21
c-23 12 -653 334 -1401 717 l-1358 695 33 18 c19 10 2253 1210 4964 2668 2712
1457 4932 2650 4935 2650 3 1 -22 -26 -55 -58z m-1085 -5137 c-760 -2711
-1385 -4932 -1388 -4935 -8 -7 -2447 1947 -2447 1959 0 12 5208 7913 5212
7908 2 -2 -617 -2222 -1377 -4932z m211 3738 c-3251 -4332 -5795 -7711 -5800
-7706 -3 3 -68 508 -143 1122 l-137 1117 52 51 c86 85 6748 6384 6752 6384 1
0 -324 -436 -724 -968z m-615 -1129 c-123 -186 -986 -1487 -1919 -2891 l-1695
-2552 -644 -562 c-353 -309 -672 -587 -707 -617 -55 -48 33 73 590 819 360
481 1540 2060 2623 3508 1082 1447 1969 2632 1971 2632 2 0 -96 -152 -219
-337z"/>
</g>
</svg>
