<?xml version="1.0" standalone="no"?>
<!DOCTYPE svg PUBLIC "-//W3C//DTD SVG 20010904//EN"
 "http://www.w3.org/TR/2001/REC-SVG-20010904/DTD/svg10.dtd">
<svg version="1.0" xmlns="http://www.w3.org/2000/svg"
 width="1280.000000pt" height="1280.000000pt" viewBox="0 0 1280.000000 1280.000000"
 preserveAspectRatio="xMidYMid meet">
<metadata>
Created by potrace 1.14, written by Peter Selinger 2001-2017
</metadata>
<g transform="translate(0.000000,1280.000000) scale(0.100000,-0.100000)"
fill="#000000" stroke="none">
<path d="M9400 12394 c-174 -33 -326 -101 -449 -201 -70 -57 -2138 -2142
-6570 -6623 -580 -586 -803 -819 -823 -855 -15 -28 -157 -447 -317 -930 -668
-2031 -852 -2597 -862 -2652 -21 -110 5 -260 67 -390 62 -130 191 -243 336
-295 54 -19 83 -22 213 -23 l150 0 1719 583 c945 320 1741 595 1769 610 27 14
89 65 138 112 48 47 1701 1715 3672 3706 3896 3937 3664 3695 3736 3883 55
142 65 201 65 371 0 127 -4 171 -22 245 -26 105 -102 265 -165 348 -61 79
-1823 1865 -1897 1922 -85 66 -210 129 -315 161 -79 24 -110 27 -255 30 -91 1
-176 0 -190 -2z m302 -403 c84 -22 169 -62 239 -113 37 -27 1286 -1285 1705
-1719 160 -165 199 -250 211 -464 7 -126 -6 -187 -60 -290 -32 -60 -153 -186
-1192 -1242 l-230 -234 -1269 1281 c-698 705 -1269 1287 -1270 1295 -1 17
1323 1366 1380 1406 132 91 321 122 486 80z m-756 -2902 c698 -705 1270 -1284
1272 -1288 1 -3 -151 -159 -339 -346 l-341 -340 -496 502 c-273 275 -848 855
-1276 1288 l-780 786 340 340 c186 186 342 339 345 339 3 0 577 -576 1275
-1281z m-1399 -370 c-34 -37 -1074 -1084 -2312 -2327 l-2250 -2260 -16 97 c-9
53 -24 115 -33 139 -69 189 -217 349 -387 418 -82 34 -140 45 -259 53 l-105 6
2335 2347 2335 2347 377 -376 377 -376 -62 -68z m561 -462 l364 -364 -2298
-2321 c-1263 -1277 -2301 -2319 -2306 -2316 -4 3 -8 24 -8 46 0 56 -27 160
-60 234 -60 133 -164 251 -283 323 -101 60 -280 111 -392 111 l-40 0 2325
2325 c1279 1279 2327 2325 2330 2325 3 0 169 -164 368 -363z m751 -1826 c-288
-292 -1334 -1348 -2324 -2348 l-1800 -1818 -7 105 c-10 159 -45 263 -134 397
-121 182 -267 259 -515 272 l-125 6 2325 2348 2325 2348 389 -389 390 -390
-524 -531z m-6447 -1774 c215 -78 358 -277 358 -497 0 -120 -50 -252 -129
-344 -46 -53 -59 -101 -42 -157 13 -42 43 -69 78 -69 12 0 47 22 79 50 214
187 525 184 711 -8 105 -108 153 -215 161 -352 8 -148 -29 -258 -127 -379 -46
-57 -51 -68 -51 -113 0 -41 5 -54 29 -79 45 -44 73 -39 145 29 158 147 374
180 566 85 97 -47 243 -189 288 -278 66 -133 80 -256 41 -381 -24 -79 -81
-178 -112 -198 -22 -14 -1864 -646 -1882 -646 -6 0 -299 289 -651 643 l-642
642 310 940 c170 517 317 955 326 973 31 60 134 127 242 157 79 22 216 14 302
-18z"/>
</g>
</svg>
