<?xml version="1.0" encoding="utf-8"?>
<!-- Generator: Adobe Illustrator 19.0.0, SVG Export Plug-In . SVG Version: 6.00 Build 0)  -->
<svg version="1.1" id="Layer_1" xmlns="http://www.w3.org/2000/svg" xmlns:xlink="http://www.w3.org/1999/xlink" x="0px" y="0px"
	 viewBox="0 0 21 21" style="enable-background:new 0 0 21 21;" xml:space="preserve">
<style type="text/css">
	.st0{fill:#010101;}
</style>
<g id="XMLID_2_">
	<path id="XMLID_4_" class="st0" d="M15.3,0H6C5.3,0,4.7,0.7,4.7,1.5v18C4.7,20.3,5.3,21,6,21h9.3c0.7,0,1.3-0.7,1.3-1.5v-18
		C16.7,0.7,16.1,0,15.3,0z M9.6,1.1h2.2v0.5H9.6V1.1z M10.7,19.4c-0.5,0-0.8-0.4-0.8-0.9c0-0.5,0.4-0.9,0.8-0.9
		c0.5,0,0.8,0.4,0.8,0.9C11.5,19,11.1,19.4,10.7,19.4z M15.4,16.3H6V2.9h9.4V16.3z"/>
	<rect id="XMLID_3_" x="7.1" y="4.2" class="st0" width="7.1" height="10.7"/>
</g>
</svg>
