<?xml version="1.0" standalone="no"?>
<!DOCTYPE svg PUBLIC "-//W3C//DTD SVG 20010904//EN"
 "http://www.w3.org/TR/2001/REC-SVG-20010904/DTD/svg10.dtd">
<svg version="1.0" xmlns="http://www.w3.org/2000/svg"
 width="1280.000000pt" height="1280.000000pt" viewBox="0 0 1280.000000 1280.000000"
 preserveAspectRatio="xMidYMid meet">
<metadata>
Created by potrace 1.14, written by Peter Selinger 2001-2017
</metadata>
<g transform="translate(0.000000,1280.000000) scale(0.100000,-0.100000)"
fill="#000000" stroke="none">
<path d="M6235 12446 c-235 -54 -410 -202 -495 -416 -25 -63 -50 -184 -50
-240 l0 -38 -252 -4 c-230 -4 -259 -6 -323 -27 -125 -41 -203 -88 -290 -175
-120 -121 -182 -257 -201 -438 l-6 -68 -1648 0 c-1776 0 -1727 1 -1890 -52
-152 -49 -339 -166 -441 -275 -107 -114 -196 -261 -246 -408 -56 -166 -53 88
-53 -4036 l0 -3799 1300 0 c935 0 1300 -3 1300 -11 0 -6 -110 -414 -244 -907
-298 -1092 -326 -1197 -326 -1211 0 -8 201 -10 732 -9 l732 3 290 1068 290
1067 638 0 638 0 0 -1070 0 -1070 715 0 715 0 0 1070 0 1070 638 0 638 0 290
-1067 290 -1068 732 -3 c531 -1 732 1 732 9 0 14 -28 119 -326 1211 -134 493
-244 901 -244 907 0 8 365 11 1300 11 l1300 0 0 3799 c0 4124 3 3870 -53 4036
-50 147 -139 294 -246 408 -102 109 -289 226 -441 275 -163 53 -114 52 -1886
52 l-1643 0 -6 58 c-34 314 -203 529 -490 623 -63 21 -93 23 -321 27 l-252 4
-7 65 c-31 295 -210 522 -480 610 -66 21 -103 26 -215 29 -91 2 -154 -1 -195
-10z m314 -378 c76 -29 150 -104 181 -183 21 -55 24 -80 28 -277 l4 -218 352
0 c193 0 380 -5 415 -10 119 -20 211 -87 260 -190 23 -49 26 -70 29 -187 l4
-133 -1417 0 -1417 0 4 134 c3 129 4 135 38 202 25 49 49 79 85 106 91 70 103
71 541 76 l392 3 4 217 c4 194 7 223 27 273 70 180 273 260 470 187z m4928
-1409 c96 -13 196 -47 271 -91 125 -74 253 -225 302 -356 53 -139 50 42 50
-3453 l0 -3249 -800 0 -800 0 0 395 0 395 -1075 0 -1075 0 0 -395 0 -395
-3825 0 -3825 0 0 3239 c0 3538 -3 3332 56 3474 97 230 315 400 559 436 91 13
10065 14 10162 0z m-1147 -6834 l0 -275 -890 0 -890 0 0 275 0 275 890 0 890
0 0 -275z m1780 -745 l0 -240 -5705 0 -5705 0 0 240 0 240 5705 0 5705 0 0
-240z m-8035 -442 c-6 -18 -445 -1628 -445 -1634 0 -2 -158 -4 -351 -4 -329 0
-350 1 -345 18 3 9 100 366 216 792 116 426 216 790 221 808 l11 32 348 0
c275 0 348 -3 345 -12z m2685 -813 l0 -825 -355 0 -355 0 0 825 0 825 355 0
355 0 0 -825z m2679 793 c5 -18 105 -382 221 -808 116 -426 213 -783 216 -792
5 -17 -16 -18 -345 -18 -193 0 -351 2 -351 4 0 6 -439 1616 -445 1634 -3 9 70
12 345 12 l348 0 11 -32z"/>
<path d="M5240 7105 l0 -2595 1165 0 1165 0 0 2595 0 2595 -1165 0 -1165 0 0
-2595z m2150 0 l0 -2405 -980 0 -980 0 0 2405 0 2405 980 0 980 0 0 -2405z"/>
<path d="M8100 6210 l0 -1700 1165 0 1165 0 0 1700 0 1700 -1165 0 -1165 0 0
-1700z m2140 0 l0 -1510 -975 0 -975 0 0 1510 0 1510 975 0 975 0 0 -1510z"/>
<path d="M2390 6035 l0 -1525 1160 0 1160 0 0 1525 0 1525 -1160 0 -1160 0 0
-1525z m2140 0 l0 -1335 -975 0 -975 0 0 1335 0 1335 975 0 975 0 0 -1335z"/>
</g>
</svg>
