<?xml version="1.0" encoding="utf-8"?>
<!-- Generator: Adobe Illustrator 19.0.0, SVG Export Plug-In . SVG Version: 6.00 Build 0)  -->
<svg version="1.1" id="Layer_1" xmlns="http://www.w3.org/2000/svg" xmlns:xlink="http://www.w3.org/1999/xlink" x="0px" y="0px"
	 viewBox="0 0 20 20" style="enable-background:new 0 0 20 20;" xml:space="preserve">
<style type="text/css">
	.st0{stroke:#000000;stroke-miterlimit:10;}
</style>
<rect id="XMLID_2_" x="0" y="0" class="st0" width="2.8" height="3.8"/>
<rect id="XMLID_5_" x="17.8" y="-1.3" transform="matrix(0.8239 -0.5667 0.5667 0.8239 2.9672 11.0251)" class="st0" width="2.8" height="4.1"/>
<rect id="XMLID_3_" x="16.9" y="16" class="st0" width="2.8" height="3.8"/>
<rect id="XMLID_6_" x="0" y="16.3" class="st0" width="2.8" height="3.8"/>
<path d="M16.5,0H3.5C1.6,0,0,1.6,0,3.5v13.1C0,18.4,1.6,20,3.5,20h13.1c1.9,0,3.5-1.6,3.5-3.5V3.5C20,1.6,18.4,0,16.5,0z M15.5,7.3
	c0,0,0.3,3.4-1.9,5.9c-4.2,4.5-10.4,1.3-10.4,1.3c2.7,0.1,4.1-1.1,4.1-1.1c-1.8-0.2-2.5-2.1-2.5-2.1c0.7,0.2,1.2,0,1.2,0
	c-2-0.7-2.2-2.9-2.2-2.9C4.3,9,5.1,8.9,5.1,8.9c-1.9-1.3-1.2-4-1.2-4S6.5,8,9.9,7.9c0,0-0.3-2.1,1.4-3.1c1.7-0.9,3-0.1,3.5,0.7
	c0.5-0.1,1.3-0.4,1.8-0.9c0,0.9-1,1.6-1,1.6c0.9-0.1,1.4-0.5,1.4-0.5C16.7,6.7,15.5,7.3,15.5,7.3z"/>
</svg>
