<?xml version="1.0" encoding="utf-8"?>
<!-- Generator: Adobe Illustrator 19.0.0, SVG Export Plug-In . SVG Version: 6.00 Build 0)  -->
<svg version="1.1" id="Layer_1" xmlns="http://www.w3.org/2000/svg" xmlns:xlink="http://www.w3.org/1999/xlink" x="0px" y="0px"
	 viewBox="0 0 20 20" style="enable-background:new 0 0 20 20;" xml:space="preserve">
<style type="text/css">
	.st0{stroke:#000000;stroke-miterlimit:10;}
</style>
<path id="XMLID_8_" d="M16.5,0H3.5C1.6,0,0,1.6,0,3.5v13.1c0,1.9,1.6,3.5,3.5,3.5h13.1c1.9,0,3.5-1.6,3.5-3.5V3.5
	C20,1.6,18.4,0,16.5,0z M15.6,11.2L8,15.8c-0.9,0.6-2.1-0.1-2.1-1.2V5.5c0-1.1,1.2-1.8,2.1-1.2l7.5,4.6
	C16.5,9.4,16.5,10.7,15.6,11.2z"/>
<rect id="XMLID_2_" x="0" y="0" class="st0" width="2.8" height="3.8"/>
<rect id="XMLID_5_" x="17.2" y="0" class="st0" width="2.8" height="3.8"/>
<rect id="XMLID_3_" x="17.7" y="16" class="st0" width="2.8" height="3.8"/>
<rect id="XMLID_6_" x="0" y="16.3" class="st0" width="2.8" height="3.8"/>
</svg>
